<svg width="310" height="80" viewBox="0 0 310 80" fill="none" xmlns="http://www.w3.org/2000/svg">
<rect x="0.5" y="0.5" width="309" height="79" rx="13.5" stroke="#E5E5E8"/>
<path d="M17.56 48.52C18.4667 47.8 18.88 47.4667 18.8 47.52C21.4133 45.36 23.4667 43.5867 24.96 42.2C26.48 40.8133 27.76 39.36 28.8 37.84C29.84 36.32 30.36 34.84 30.36 33.4C30.36 32.3067 30.1067 31.4533 29.6 30.84C29.0933 30.2267 28.3333 29.92 27.32 29.92C26.3067 29.92 25.5067 30.3067 24.92 31.08C24.36 31.8267 24.08 32.8933 24.08 34.28H17.48C17.5333 32.0133 18.0133 30.12 18.92 28.6C19.8533 27.08 21.0667 25.96 22.56 25.24C24.08 24.52 25.76 24.16 27.6 24.16C30.7733 24.16 33.16 24.9733 34.76 26.6C36.3867 28.2267 37.2 30.3467 37.2 32.96C37.2 35.8133 36.2267 38.4667 34.28 40.92C32.3333 43.3467 29.8533 45.72 26.84 48.04H37.64V53.6H17.56V48.52Z" fill="url(#paint0_linear_1_1240)"/>
<path d="M54.686 26.328L50.066 37.612H48.75L50.262 33.916L47.168 26.328H48.582L50.99 32.544L53.37 26.328H54.686ZM62.5467 29.87C62.5467 30.1127 62.5327 30.3693 62.5047 30.64H56.3727C56.4193 31.396 56.676 31.9887 57.1427 32.418C57.6187 32.838 58.1927 33.048 58.8647 33.048C59.4153 33.048 59.8727 32.922 60.2367 32.67C60.61 32.4087 60.8713 32.0633 61.0207 31.634H62.3927C62.1873 32.3713 61.7767 32.9733 61.1607 33.44C60.5447 33.8973 59.7793 34.126 58.8647 34.126C58.1367 34.126 57.4833 33.9627 56.9047 33.636C56.3353 33.3093 55.8873 32.8473 55.5607 32.25C55.234 31.6433 55.0707 30.9433 55.0707 30.15C55.0707 29.3567 55.2293 28.6613 55.5467 28.064C55.864 27.4667 56.3073 27.0093 56.8767 26.692C57.4553 26.3653 58.118 26.202 58.8647 26.202C59.5927 26.202 60.2367 26.3607 60.7967 26.678C61.3567 26.9953 61.786 27.434 62.0847 27.994C62.3927 28.5447 62.5467 29.17 62.5467 29.87ZM61.2307 29.604C61.2307 29.1187 61.1233 28.7033 60.9087 28.358C60.694 28.0033 60.4 27.7373 60.0267 27.56C59.6627 27.3733 59.2567 27.28 58.8087 27.28C58.1647 27.28 57.614 27.4853 57.1567 27.896C56.7087 28.3067 56.452 28.876 56.3867 29.604H61.2307ZM63.3323 30.136C63.3323 29.352 63.491 28.666 63.8083 28.078C64.1256 27.4807 64.5596 27.0187 65.1103 26.692C65.6703 26.3653 66.291 26.202 66.9723 26.202C67.6443 26.202 68.2276 26.3467 68.7223 26.636C69.217 26.9253 69.5856 27.2893 69.8283 27.728V26.328H71.1163V34H69.8283V32.572C69.5763 33.02 69.1983 33.3933 68.6943 33.692C68.1996 33.9813 67.621 34.126 66.9583 34.126C66.277 34.126 65.661 33.958 65.1103 33.622C64.5596 33.286 64.1256 32.8147 63.8083 32.208C63.491 31.6013 63.3323 30.9107 63.3323 30.136ZM69.8283 30.15C69.8283 29.5713 69.7116 29.0673 69.4783 28.638C69.245 28.2087 68.9276 27.882 68.5263 27.658C68.1343 27.4247 67.7003 27.308 67.2243 27.308C66.7483 27.308 66.3143 27.42 65.9223 27.644C65.5303 27.868 65.2176 28.1947 64.9843 28.624C64.751 29.0533 64.6343 29.5573 64.6343 30.136C64.6343 30.724 64.751 31.2373 64.9843 31.676C65.2176 32.1053 65.5303 32.4367 65.9223 32.67C66.3143 32.894 66.7483 33.006 67.2243 33.006C67.7003 33.006 68.1343 32.894 68.5263 32.67C68.9276 32.4367 69.245 32.1053 69.4783 31.676C69.7116 31.2373 69.8283 30.7287 69.8283 30.15ZM74.1232 27.574C74.3472 27.1353 74.6646 26.7947 75.0752 26.552C75.4953 26.3093 76.0039 26.188 76.6013 26.188V27.504H76.2652C74.8372 27.504 74.1232 28.2787 74.1232 29.828V34H72.8492V26.328H74.1232V27.574ZM80.3679 34.126C79.7799 34.126 79.2526 34.028 78.7859 33.832C78.3192 33.6267 77.9506 33.3467 77.6799 32.992C77.4092 32.628 77.2599 32.2127 77.2319 31.746H78.5479C78.5852 32.1287 78.7626 32.4413 79.0799 32.684C79.4066 32.9267 79.8312 33.048 80.3539 33.048C80.8392 33.048 81.2219 32.9407 81.5019 32.726C81.7819 32.5113 81.9219 32.2407 81.9219 31.914C81.9219 31.578 81.7726 31.3307 81.4739 31.172C81.1752 31.004 80.7132 30.8407 80.0879 30.682C79.5186 30.5327 79.0519 30.3833 78.6879 30.234C78.3332 30.0753 78.0252 29.8467 77.7639 29.548C77.5119 29.24 77.3859 28.8387 77.3859 28.344C77.3859 27.952 77.5026 27.5927 77.7359 27.266C77.9692 26.9393 78.3006 26.6827 78.7299 26.496C79.1592 26.3 79.6492 26.202 80.1999 26.202C81.0492 26.202 81.7352 26.4167 82.2579 26.846C82.7806 27.2753 83.0606 27.8633 83.0979 28.61H81.8239C81.7959 28.2087 81.6326 27.8867 81.3339 27.644C81.0446 27.4013 80.6526 27.28 80.1579 27.28C79.7006 27.28 79.3366 27.378 79.0659 27.574C78.7952 27.77 78.6599 28.0267 78.6599 28.344C78.6599 28.596 78.7392 28.806 78.8979 28.974C79.0659 29.1327 79.2712 29.2633 79.5139 29.366C79.7659 29.4593 80.1112 29.5667 80.5499 29.688C81.1006 29.8373 81.5486 29.9867 81.8939 30.136C82.2392 30.276 82.5332 30.4907 82.7759 30.78C83.0279 31.0693 83.1586 31.4473 83.1679 31.914C83.1679 32.334 83.0512 32.712 82.8179 33.048C82.5846 33.384 82.2532 33.65 81.8239 33.846C81.4039 34.0327 80.9186 34.126 80.3679 34.126ZM89.4128 27.378V31.9C89.4128 32.2733 89.4921 32.5393 89.6508 32.698C89.8094 32.8473 90.0848 32.922 90.4768 32.922H91.4148V34H90.2668C89.5574 34 89.0254 33.8367 88.6708 33.51C88.3161 33.1833 88.1388 32.6467 88.1388 31.9V27.378H87.1448V26.328H88.1388V24.396H89.4128V26.328H91.4148V27.378H89.4128ZM93.1964 25.082C92.9537 25.082 92.7484 24.998 92.5804 24.83C92.4124 24.662 92.3284 24.4567 92.3284 24.214C92.3284 23.9713 92.4124 23.766 92.5804 23.598C92.7484 23.43 92.9537 23.346 93.1964 23.346C93.4297 23.346 93.6257 23.43 93.7844 23.598C93.9524 23.766 94.0364 23.9713 94.0364 24.214C94.0364 24.4567 93.9524 24.662 93.7844 24.83C93.6257 24.998 93.4297 25.082 93.1964 25.082ZM93.8124 26.328V34H92.5384V26.328H93.8124ZM104.79 26.188C105.387 26.188 105.919 26.314 106.386 26.566C106.852 26.8087 107.221 27.1773 107.492 27.672C107.762 28.1667 107.898 28.7687 107.898 29.478V34H106.638V29.66C106.638 28.8947 106.446 28.3113 106.064 27.91C105.69 27.4993 105.182 27.294 104.538 27.294C103.875 27.294 103.348 27.5087 102.956 27.938C102.564 28.358 102.368 28.9693 102.368 29.772V34H101.108V29.66C101.108 28.8947 100.916 28.3113 100.534 27.91C100.16 27.4993 99.6517 27.294 99.0077 27.294C98.345 27.294 97.8177 27.5087 97.4257 27.938C97.0337 28.358 96.8377 28.9693 96.8377 29.772V34H95.5637V26.328H96.8377V27.434C97.0897 27.0327 97.4257 26.7247 97.8457 26.51C98.275 26.2953 98.7464 26.188 99.2597 26.188C99.9037 26.188 100.473 26.3327 100.968 26.622C101.462 26.9113 101.831 27.336 102.074 27.896C102.288 27.3547 102.643 26.9347 103.138 26.636C103.632 26.3373 104.183 26.188 104.79 26.188ZM116.568 29.87C116.568 30.1127 116.554 30.3693 116.526 30.64H110.394C110.44 31.396 110.697 31.9887 111.164 32.418C111.64 32.838 112.214 33.048 112.886 33.048C113.436 33.048 113.894 32.922 114.258 32.67C114.631 32.4087 114.892 32.0633 115.042 31.634H116.414C116.208 32.3713 115.798 32.9733 115.182 33.44C114.566 33.8973 113.8 34.126 112.886 34.126C112.158 34.126 111.504 33.9627 110.926 33.636C110.356 33.3093 109.908 32.8473 109.582 32.25C109.255 31.6433 109.092 30.9433 109.092 30.15C109.092 29.3567 109.25 28.6613 109.568 28.064C109.885 27.4667 110.328 27.0093 110.898 26.692C111.476 26.3653 112.139 26.202 112.886 26.202C113.614 26.202 114.258 26.3607 114.818 26.678C115.378 26.9953 115.807 27.434 116.106 27.994C116.414 28.5447 116.568 29.17 116.568 29.87ZM115.252 29.604C115.252 29.1187 115.144 28.7033 114.93 28.358C114.715 28.0033 114.421 27.7373 114.048 27.56C113.684 27.3733 113.278 27.28 112.83 27.28C112.186 27.28 111.635 27.4853 111.178 27.896C110.73 28.3067 110.473 28.876 110.408 29.604H115.252ZM124.264 27.378H122.654V34H121.38V27.378H120.386V26.328H121.38V25.782C121.38 24.9233 121.599 24.298 122.038 23.906C122.486 23.5047 123.2 23.304 124.18 23.304V24.368C123.62 24.368 123.223 24.48 122.99 24.704C122.766 24.9187 122.654 25.278 122.654 25.782V26.328H124.264V27.378ZM126.603 27.574C126.827 27.1353 127.144 26.7947 127.555 26.552C127.975 26.3093 128.484 26.188 129.081 26.188V27.504H128.745C127.317 27.504 126.603 28.2787 126.603 29.828V34H125.329V26.328H126.603V27.574ZM133.478 34.126C132.759 34.126 132.106 33.9627 131.518 33.636C130.939 33.3093 130.482 32.8473 130.146 32.25C129.819 31.6433 129.656 30.9433 129.656 30.15C129.656 29.366 129.824 28.6753 130.16 28.078C130.505 27.4713 130.972 27.0093 131.56 26.692C132.148 26.3653 132.806 26.202 133.534 26.202C134.262 26.202 134.92 26.3653 135.508 26.692C136.096 27.0093 136.558 27.4667 136.894 28.064C137.239 28.6613 137.412 29.3567 137.412 30.15C137.412 30.9433 137.234 31.6433 136.88 32.25C136.534 32.8473 136.063 33.3093 135.466 33.636C134.868 33.9627 134.206 34.126 133.478 34.126ZM133.478 33.006C133.935 33.006 134.364 32.8987 134.766 32.684C135.167 32.4693 135.489 32.1473 135.732 31.718C135.984 31.2887 136.11 30.766 136.11 30.15C136.11 29.534 135.988 29.0113 135.746 28.582C135.503 28.1527 135.186 27.8353 134.794 27.63C134.402 27.4153 133.977 27.308 133.52 27.308C133.053 27.308 132.624 27.4153 132.232 27.63C131.849 27.8353 131.541 28.1527 131.308 28.582C131.074 29.0113 130.958 29.534 130.958 30.15C130.958 30.7753 131.07 31.3027 131.294 31.732C131.527 32.1613 131.835 32.4833 132.218 32.698C132.6 32.9033 133.02 33.006 133.478 33.006ZM147.893 26.188C148.49 26.188 149.022 26.314 149.489 26.566C149.955 26.8087 150.324 27.1773 150.595 27.672C150.865 28.1667 151.001 28.7687 151.001 29.478V34H149.741V29.66C149.741 28.8947 149.549 28.3113 149.167 27.91C148.793 27.4993 148.285 27.294 147.641 27.294C146.978 27.294 146.451 27.5087 146.059 27.938C145.667 28.358 145.471 28.9693 145.471 29.772V34H144.211V29.66C144.211 28.8947 144.019 28.3113 143.637 27.91C143.263 27.4993 142.755 27.294 142.111 27.294C141.448 27.294 140.921 27.5087 140.529 27.938C140.137 28.358 139.941 28.9693 139.941 29.772V34H138.667V26.328H139.941V27.434C140.193 27.0327 140.529 26.7247 140.949 26.51C141.378 26.2953 141.849 26.188 142.363 26.188C143.007 26.188 143.576 26.3327 144.071 26.622C144.565 26.9113 144.934 27.336 145.177 27.896C145.391 27.3547 145.746 26.9347 146.241 26.636C146.735 26.3373 147.286 26.188 147.893 26.188ZM157.537 27.378V31.9C157.537 32.2733 157.616 32.5393 157.775 32.698C157.934 32.8473 158.209 32.922 158.601 32.922H159.539V34H158.391C157.682 34 157.15 33.8367 156.795 33.51C156.44 33.1833 156.263 32.6467 156.263 31.9V27.378H155.269V26.328H156.263V24.396H157.537V26.328H159.539V27.378H157.537ZM164.471 26.188C165.049 26.188 165.572 26.314 166.039 26.566C166.505 26.8087 166.869 27.1773 167.131 27.672C167.401 28.1667 167.537 28.7687 167.537 29.478V34H166.277V29.66C166.277 28.8947 166.085 28.3113 165.703 27.91C165.32 27.4993 164.797 27.294 164.135 27.294C163.463 27.294 162.926 27.504 162.525 27.924C162.133 28.344 161.937 28.9553 161.937 29.758V34H160.663V23.64H161.937V27.42C162.189 27.028 162.534 26.7247 162.973 26.51C163.421 26.2953 163.92 26.188 164.471 26.188ZM176.198 29.87C176.198 30.1127 176.184 30.3693 176.156 30.64H170.024C170.07 31.396 170.327 31.9887 170.794 32.418C171.27 32.838 171.844 33.048 172.516 33.048C173.066 33.048 173.524 32.922 173.888 32.67C174.261 32.4087 174.522 32.0633 174.672 31.634H176.044C175.838 32.3713 175.428 32.9733 174.812 33.44C174.196 33.8973 173.43 34.126 172.516 34.126C171.788 34.126 171.134 33.9627 170.556 33.636C169.986 33.3093 169.538 32.8473 169.212 32.25C168.885 31.6433 168.722 30.9433 168.722 30.15C168.722 29.3567 168.88 28.6613 169.198 28.064C169.515 27.4667 169.958 27.0093 170.528 26.692C171.106 26.3653 171.769 26.202 172.516 26.202C173.244 26.202 173.888 26.3607 174.448 26.678C175.008 26.9953 175.437 27.434 175.736 27.994C176.044 28.5447 176.198 29.17 176.198 29.87ZM174.882 29.604C174.882 29.1187 174.774 28.7033 174.56 28.358C174.345 28.0033 174.051 27.7373 173.678 27.56C173.314 27.3733 172.908 27.28 172.46 27.28C171.816 27.28 171.265 27.4853 170.808 27.896C170.36 28.3067 170.103 28.876 170.038 29.604H174.882ZM180.296 30.136C180.296 29.352 180.454 28.666 180.772 28.078C181.089 27.4807 181.523 27.0187 182.074 26.692C182.634 26.3653 183.259 26.202 183.95 26.202C184.547 26.202 185.102 26.342 185.616 26.622C186.129 26.8927 186.521 27.252 186.792 27.7V23.64H188.08V34H186.792V32.558C186.54 33.0153 186.166 33.3933 185.672 33.692C185.177 33.9813 184.598 34.126 183.936 34.126C183.254 34.126 182.634 33.958 182.074 33.622C181.523 33.286 181.089 32.8147 180.772 32.208C180.454 31.6013 180.296 30.9107 180.296 30.136ZM186.792 30.15C186.792 29.5713 186.675 29.0673 186.442 28.638C186.208 28.2087 185.891 27.882 185.49 27.658C185.098 27.4247 184.664 27.308 184.188 27.308C183.712 27.308 183.278 27.42 182.886 27.644C182.494 27.868 182.181 28.1947 181.948 28.624C181.714 29.0533 181.598 29.5573 181.598 30.136C181.598 30.724 181.714 31.2373 181.948 31.676C182.181 32.1053 182.494 32.4367 182.886 32.67C183.278 32.894 183.712 33.006 184.188 33.006C184.664 33.006 185.098 32.894 185.49 32.67C185.891 32.4367 186.208 32.1053 186.442 31.676C186.675 31.2373 186.792 30.7287 186.792 30.15ZM189.337 30.136C189.337 29.352 189.495 28.666 189.813 28.078C190.13 27.4807 190.564 27.0187 191.115 26.692C191.675 26.3653 192.295 26.202 192.977 26.202C193.649 26.202 194.232 26.3467 194.727 26.636C195.221 26.9253 195.59 27.2893 195.833 27.728V26.328H197.121V34H195.833V32.572C195.581 33.02 195.203 33.3933 194.699 33.692C194.204 33.9813 193.625 34.126 192.963 34.126C192.281 34.126 191.665 33.958 191.115 33.622C190.564 33.286 190.13 32.8147 189.813 32.208C189.495 31.6013 189.337 30.9107 189.337 30.136ZM195.833 30.15C195.833 29.5713 195.716 29.0673 195.483 28.638C195.249 28.2087 194.932 27.882 194.531 27.658C194.139 27.4247 193.705 27.308 193.229 27.308C192.753 27.308 192.319 27.42 191.927 27.644C191.535 27.868 191.222 28.1947 190.989 28.624C190.755 29.0533 190.639 29.5573 190.639 30.136C190.639 30.724 190.755 31.2373 190.989 31.676C191.222 32.1053 191.535 32.4367 191.927 32.67C192.319 32.894 192.753 33.006 193.229 33.006C193.705 33.006 194.139 32.894 194.531 32.67C194.932 32.4367 195.249 32.1053 195.483 31.676C195.716 31.2373 195.833 30.7287 195.833 30.15ZM200.408 27.378V31.9C200.408 32.2733 200.487 32.5393 200.646 32.698C200.804 32.8473 201.08 32.922 201.472 32.922H202.41V34H201.262C200.552 34 200.02 33.8367 199.666 33.51C199.311 33.1833 199.134 32.6467 199.134 31.9V27.378H198.14V26.328H199.134V24.396H200.408V26.328H202.41V27.378H200.408ZM210.533 29.87C210.533 30.1127 210.519 30.3693 210.491 30.64H204.359C204.406 31.396 204.663 31.9887 205.129 32.418C205.605 32.838 206.179 33.048 206.851 33.048C207.402 33.048 207.859 32.922 208.223 32.67C208.597 32.4087 208.858 32.0633 209.007 31.634H210.379C210.174 32.3713 209.763 32.9733 209.147 33.44C208.531 33.8973 207.766 34.126 206.851 34.126C206.123 34.126 205.47 33.9627 204.891 33.636C204.322 33.3093 203.874 32.8473 203.547 32.25C203.221 31.6433 203.057 30.9433 203.057 30.15C203.057 29.3567 203.216 28.6613 203.533 28.064C203.851 27.4667 204.294 27.0093 204.863 26.692C205.442 26.3653 206.105 26.202 206.851 26.202C207.579 26.202 208.223 26.3607 208.783 26.678C209.343 26.9953 209.773 27.434 210.071 27.994C210.379 28.5447 210.533 29.17 210.533 29.87ZM209.217 29.604C209.217 29.1187 209.11 28.7033 208.895 28.358C208.681 28.0033 208.387 27.7373 208.013 27.56C207.649 27.3733 207.243 27.28 206.795 27.28C206.151 27.28 205.601 27.4853 205.143 27.896C204.695 28.3067 204.439 28.876 204.373 29.604H209.217ZM218.453 34.126C217.735 34.126 217.081 33.9627 216.493 33.636C215.915 33.3093 215.457 32.8473 215.121 32.25C214.795 31.6433 214.631 30.9433 214.631 30.15C214.631 29.366 214.799 28.6753 215.135 28.078C215.481 27.4713 215.947 27.0093 216.535 26.692C217.123 26.3653 217.781 26.202 218.509 26.202C219.237 26.202 219.895 26.3653 220.483 26.692C221.071 27.0093 221.533 27.4667 221.869 28.064C222.215 28.6613 222.387 29.3567 222.387 30.15C222.387 30.9433 222.21 31.6433 221.855 32.25C221.51 32.8473 221.039 33.3093 220.441 33.636C219.844 33.9627 219.181 34.126 218.453 34.126ZM218.453 33.006C218.911 33.006 219.34 32.8987 219.741 32.684C220.143 32.4693 220.465 32.1473 220.707 31.718C220.959 31.2887 221.085 30.766 221.085 30.15C221.085 29.534 220.964 29.0113 220.721 28.582C220.479 28.1527 220.161 27.8353 219.769 27.63C219.377 27.4153 218.953 27.308 218.495 27.308C218.029 27.308 217.599 27.4153 217.207 27.63C216.825 27.8353 216.517 28.1527 216.283 28.582C216.05 29.0113 215.933 29.534 215.933 30.15C215.933 30.7753 216.045 31.3027 216.269 31.732C216.503 32.1613 216.811 32.4833 217.193 32.698C217.576 32.9033 217.996 33.006 218.453 33.006ZM226.764 27.378H225.154V34H223.88V27.378H222.886V26.328H223.88V25.782C223.88 24.9233 224.1 24.298 224.538 23.906C224.986 23.5047 225.7 23.304 226.68 23.304V24.368C226.12 24.368 225.724 24.48 225.49 24.704C225.266 24.9187 225.154 25.278 225.154 25.782V26.328H226.764V27.378ZM55.078 50.87C55.078 51.1127 55.064 51.3693 55.036 51.64H48.904C48.9507 52.396 49.2073 52.9887 49.674 53.418C50.15 53.838 50.724 54.048 51.396 54.048C51.9467 54.048 52.404 53.922 52.768 53.67C53.1413 53.4087 53.4027 53.0633 53.552 52.634H54.924C54.7187 53.3713 54.308 53.9733 53.692 54.44C53.076 54.8973 52.3107 55.126 51.396 55.126C50.668 55.126 50.0147 54.9627 49.436 54.636C48.8667 54.3093 48.4187 53.8473 48.092 53.25C47.7653 52.6433 47.602 51.9433 47.602 51.15C47.602 50.3567 47.7607 49.6613 48.078 49.064C48.3953 48.4667 48.8387 48.0093 49.408 47.692C49.9867 47.3653 50.6493 47.202 51.396 47.202C52.124 47.202 52.768 47.3607 53.328 47.678C53.888 47.9953 54.3173 48.434 54.616 48.994C54.924 49.5447 55.078 50.17 55.078 50.87ZM53.762 50.604C53.762 50.1187 53.6547 49.7033 53.44 49.358C53.2253 49.0033 52.9313 48.7373 52.558 48.56C52.194 48.3733 51.788 48.28 51.34 48.28C50.696 48.28 50.1453 48.4853 49.688 48.896C49.24 49.3067 48.9833 49.876 48.918 50.604H53.762ZM60.0776 47.188C61.011 47.188 61.767 47.4727 62.3456 48.042C62.9243 48.602 63.2136 49.414 63.2136 50.478V55H61.9536V50.66C61.9536 49.8947 61.7623 49.3113 61.3796 48.91C60.997 48.4993 60.4743 48.294 59.8116 48.294C59.1396 48.294 58.603 48.504 58.2016 48.924C57.8096 49.344 57.6136 49.9553 57.6136 50.758V55H56.3396V47.328H57.6136V48.42C57.8656 48.028 58.2063 47.7247 58.6356 47.51C59.0743 47.2953 59.555 47.188 60.0776 47.188ZM66.1487 48.574C66.3727 48.1353 66.6901 47.7947 67.1007 47.552C67.5207 47.3093 68.0294 47.188 68.6267 47.188V48.504H68.2907C66.8627 48.504 66.1487 49.2787 66.1487 50.828V55H64.8747V47.328H66.1487V48.574ZM73.0234 55.126C72.3047 55.126 71.6514 54.9627 71.0634 54.636C70.4847 54.3093 70.0274 53.8473 69.6914 53.25C69.3647 52.6433 69.2014 51.9433 69.2014 51.15C69.2014 50.366 69.3694 49.6753 69.7054 49.078C70.0507 48.4713 70.5174 48.0093 71.1054 47.692C71.6934 47.3653 72.3514 47.202 73.0794 47.202C73.8074 47.202 74.4654 47.3653 75.0534 47.692C75.6414 48.0093 76.1034 48.4667 76.4394 49.064C76.7847 49.6613 76.9574 50.3567 76.9574 51.15C76.9574 51.9433 76.78 52.6433 76.4254 53.25C76.08 53.8473 75.6087 54.3093 75.0114 54.636C74.414 54.9627 73.7514 55.126 73.0234 55.126ZM73.0234 54.006C73.4807 54.006 73.91 53.8987 74.3114 53.684C74.7127 53.4693 75.0347 53.1473 75.2774 52.718C75.5294 52.2887 75.6554 51.766 75.6554 51.15C75.6554 50.534 75.534 50.0113 75.2914 49.582C75.0487 49.1527 74.7314 48.8353 74.3394 48.63C73.9474 48.4153 73.5227 48.308 73.0654 48.308C72.5987 48.308 72.1694 48.4153 71.7774 48.63C71.3947 48.8353 71.0867 49.1527 70.8534 49.582C70.62 50.0113 70.5034 50.534 70.5034 51.15C70.5034 51.7753 70.6154 52.3027 70.8394 52.732C71.0727 53.1613 71.3807 53.4833 71.7634 53.698C72.146 53.9033 72.566 54.006 73.0234 54.006ZM79.4865 44.64V55H78.2125V44.64H79.4865ZM82.5118 44.64V55H81.2378V44.64H82.5118ZM93.4891 47.188C94.0864 47.188 94.6184 47.314 95.0851 47.566C95.5517 47.8087 95.9204 48.1773 96.1911 48.672C96.4617 49.1667 96.5971 49.7687 96.5971 50.478V55H95.3371V50.66C95.3371 49.8947 95.1457 49.3113 94.7631 48.91C94.3897 48.4993 93.8811 48.294 93.2371 48.294C92.5744 48.294 92.0471 48.5087 91.6551 48.938C91.2631 49.358 91.0671 49.9693 91.0671 50.772V55H89.8071V50.66C89.8071 49.8947 89.6157 49.3113 89.2331 48.91C88.8597 48.4993 88.3511 48.294 87.7071 48.294C87.0444 48.294 86.5171 48.5087 86.1251 48.938C85.7331 49.358 85.5371 49.9693 85.5371 50.772V55H84.2631V47.328H85.5371V48.434C85.7891 48.0327 86.1251 47.7247 86.5451 47.51C86.9744 47.2953 87.4457 47.188 87.9591 47.188C88.6031 47.188 89.1724 47.3327 89.6671 47.622C90.1617 47.9113 90.5304 48.336 90.7731 48.896C90.9877 48.3547 91.3424 47.9347 91.8371 47.636C92.3317 47.3373 92.8824 47.188 93.4891 47.188ZM105.267 50.87C105.267 51.1127 105.253 51.3693 105.225 51.64H99.0929C99.1396 52.396 99.3962 52.9887 99.8629 53.418C100.339 53.838 100.913 54.048 101.585 54.048C102.136 54.048 102.593 53.922 102.957 53.67C103.33 53.4087 103.592 53.0633 103.741 52.634H105.113C104.908 53.3713 104.497 53.9733 103.881 54.44C103.265 54.8973 102.5 55.126 101.585 55.126C100.857 55.126 100.204 54.9627 99.6249 54.636C99.0556 54.3093 98.6076 53.8473 98.2809 53.25C97.9542 52.6433 97.7909 51.9433 97.7909 51.15C97.7909 50.3567 97.9496 49.6613 98.2669 49.064C98.5842 48.4667 99.0276 48.0093 99.5969 47.692C100.176 47.3653 100.838 47.202 101.585 47.202C102.313 47.202 102.957 47.3607 103.517 47.678C104.077 47.9953 104.506 48.434 104.805 48.994C105.113 49.5447 105.267 50.17 105.267 50.87ZM103.951 50.604C103.951 50.1187 103.844 49.7033 103.629 49.358C103.414 49.0033 103.12 48.7373 102.747 48.56C102.383 48.3733 101.977 48.28 101.529 48.28C100.885 48.28 100.334 48.4853 99.8769 48.896C99.4289 49.3067 99.1722 49.876 99.1069 50.604H103.951ZM110.267 47.188C111.2 47.188 111.956 47.4727 112.535 48.042C113.113 48.602 113.403 49.414 113.403 50.478V55H112.143V50.66C112.143 49.8947 111.951 49.3113 111.569 48.91C111.186 48.4993 110.663 48.294 110.001 48.294C109.329 48.294 108.792 48.504 108.391 48.924C107.999 49.344 107.803 49.9553 107.803 50.758V55H106.529V47.328H107.803V48.42C108.055 48.028 108.395 47.7247 108.825 47.51C109.263 47.2953 109.744 47.188 110.267 47.188ZM116.618 48.378V52.9C116.618 53.2733 116.697 53.5393 116.856 53.698C117.014 53.8473 117.29 53.922 117.682 53.922H118.62V55H117.472C116.762 55 116.23 54.8367 115.876 54.51C115.521 54.1833 115.344 53.6467 115.344 52.9V48.378H114.35V47.328H115.344V45.396H116.618V47.328H118.62V48.378H116.618Z" fill="#4C4D52"/>
<defs>
<linearGradient id="paint0_linear_1_1240" x1="27.5" y1="10" x2="27.5" y2="66.1039" gradientUnits="userSpaceOnUse">
<stop stop-color="#FFA50B"/>
<stop offset="1" stop-color="#E27900"/>
</linearGradient>
</defs>
</svg>
