<svg width="50" height="62" viewBox="0 0 50 62" fill="none" xmlns="http://www.w3.org/2000/svg">
<path d="M42.851 40.5058L39.2123 39.4374L31.2957 34.2665V33.0818C33.5877 31.3529 35.1617 28.7103 35.4543 25.6811C36.6038 25.4961 37.4845 24.4972 37.4845 23.2964V20.0384C37.4845 20.0258 37.4832 20.0134 37.4826 20.0008V15.8737C37.9406 15.5458 38.2312 15.0117 38.2312 14.4125V10.6356L43.6946 9.70497C44.5925 9.55203 45.2382 8.83891 45.3016 7.93034C45.3648 7.02177 44.8244 6.22594 43.9565 5.94997L25.5385 0.0916982C25.1542 -0.0306064 24.7482 -0.0304854 24.3641 0.0915771L5.9459 5.94997C5.07802 6.22594 4.53746 7.02177 4.60079 7.93022C4.64099 8.50747 4.91684 9.00517 5.34261 9.33115V14.2702H5.29756C4.26039 14.2702 3.41661 15.114 3.41661 16.1511V18.6028L2.20241 25.7294C1.99255 26.962 2.94193 28.0903 4.19525 28.0903H8.30626C9.55679 28.0903 10.5094 26.9647 10.2991 25.7293L9.08489 18.6028V16.1511C9.08489 15.114 8.24111 14.2702 7.20394 14.2702H7.15902V9.86687L11.6751 10.6361V14.4125C11.6751 15.0091 11.9644 15.5424 12.4202 15.8708L12.4219 20.0387V23.2964C12.4219 24.4973 13.3026 25.4961 14.4521 25.6811C14.7446 28.7086 16.3169 31.35 18.6067 33.079V34.2693L10.6918 39.4392L7.05597 40.5064C3.16534 41.6483 0.418211 45.2202 0.418211 49.3723V52.0789C0.418211 52.5805 0.824723 52.9871 1.32641 52.9871C1.82811 52.9871 2.23462 52.5806 2.23462 52.0789V49.3723C2.23462 46.0998 4.4275 43.1707 7.56759 42.2492L10.9553 41.2547L24.4895 49.2969C24.7642 49.4602 25.1278 49.4689 25.4173 49.2969L38.9523 41.2542L42.3397 42.2487C45.4793 43.1704 47.6721 46.0994 47.6721 49.3716V58.1434C47.6721 59.2685 46.7568 60.1839 45.6317 60.1839H41.6287V56.2691C41.6287 55.7676 41.2222 55.3609 40.7205 55.3609C40.2189 55.3609 39.8123 55.7675 39.8123 56.2691V60.1839H10.0901V56.2691C10.0901 55.7676 9.68358 55.3609 9.18189 55.3609C8.6802 55.3609 8.27368 55.7675 8.27368 56.2691V60.1839H4.2748C3.14972 60.1839 2.23438 59.2685 2.23438 58.1434V56.3244C2.23438 55.8228 1.82786 55.4162 1.32617 55.4162C0.82448 55.4162 0.417969 55.8227 0.417969 56.3244V58.1433C0.417969 60.27 2.14804 62 4.27468 62H45.6315C47.7581 62 49.4882 60.27 49.4882 58.1433V49.3715C49.4882 45.3173 46.8348 41.6754 42.851 40.5058ZM8.30614 26.2739H4.19525C4.06822 26.2739 3.97134 26.1604 3.9929 26.0343L5.09122 19.5878H7.41016L8.50848 26.0342C8.52992 26.16 8.43377 26.2739 8.30614 26.2739ZM7.26848 16.1511V17.7715H5.23278V16.1511C5.23278 16.1154 5.26172 16.0865 5.29744 16.0865H7.2037C7.23954 16.0864 7.26848 16.1154 7.26848 16.1511ZM21.705 45.1887L22.0665 45.7443L12.7945 40.2349L18.6798 36.3908C18.9466 39.5222 19.9788 42.5357 21.705 45.1887ZM21.6987 41.2683C23.8364 41.572 26.0687 41.5722 28.2075 41.2683C27.7942 42.2852 27.2849 43.2666 26.6788 44.1983L24.9531 46.8507L23.2274 44.1983C22.6214 43.2666 22.112 42.2852 21.6987 41.2683ZM28.2012 45.1887C29.9274 42.5357 30.9596 39.5222 31.2264 36.3908L37.1117 40.2348L27.8398 45.7443L28.2012 45.1887ZM33.5137 16.2119H35.6663V19.1301H34.5979C34.0001 19.1301 33.5136 18.6437 33.5136 18.0459V16.2119H33.5137ZM6.49639 7.68089L24.9149 1.82237C24.9385 1.81486 24.9639 1.81474 24.9879 1.82249L43.4063 7.68089C43.4443 7.693 43.4965 7.70946 43.4898 7.80404C43.4831 7.89849 43.4293 7.90757 43.3898 7.91435L37.3002 8.95152L35.014 8.66877C34.5165 8.60713 34.0629 8.96097 34.0013 9.45866C33.9398 9.95648 34.2935 10.4099 34.7912 10.4714L36.415 10.6723V14.3957L13.4914 14.3948V10.6721L22.8891 9.50928C24.2579 9.34011 25.6457 9.34011 27.0136 9.50928L30.5704 9.94921C31.0681 10.0109 31.5216 9.65714 31.5833 9.15944C31.6449 8.66162 31.2912 8.20825 30.7935 8.14661L27.2366 7.70668C25.7209 7.5191 24.183 7.5191 22.6662 7.70668L12.604 8.95177L6.51262 7.91435C6.47314 7.90757 6.41925 7.89849 6.41259 7.80404C6.40605 7.70946 6.45825 7.69287 6.49639 7.68089ZM14.2377 19.1301L14.2365 16.2119H16.3925V18.046C16.3925 18.6437 15.9062 19.1302 15.3083 19.1302L14.2377 19.1301ZM16.2366 25.2143C16.1898 24.4748 15.5752 23.8955 14.8373 23.8955C14.5069 23.8955 14.238 23.6266 14.238 23.2963V20.9465H15.3083C16.9075 20.9465 18.2088 19.6453 18.2088 18.046V16.2119H31.6973V18.046C31.6973 19.6453 32.9986 20.9465 34.5979 20.9465H35.6681V23.2963C35.6681 23.6266 35.3993 23.8955 35.0688 23.8955C34.331 23.8955 33.7163 24.4748 33.6696 25.2144C33.3803 29.8001 29.5516 33.3924 24.953 33.3924C20.3545 33.3924 16.5259 29.8001 16.2366 25.2143ZM24.9531 35.2086C26.5684 35.2086 28.1036 34.8393 29.4794 34.1826V34.7582C29.4794 36.311 29.2699 37.8427 28.8665 39.32C26.3984 39.7906 23.608 39.8096 21.0397 39.32C20.6364 37.8428 20.4269 36.3111 20.4269 34.7582C20.4269 34.7389 20.4242 34.7201 20.423 34.7011C20.4228 34.6974 20.4231 34.6936 20.4229 34.6899V34.1808C21.7996 34.8386 23.3363 35.2086 24.9531 35.2086Z" fill="url(#paint0_linear_1_159)"/>
<defs>
<linearGradient id="paint0_linear_1_159" x1="24.9531" y1="0" x2="24.9531" y2="57.9741" gradientUnits="userSpaceOnUse">
<stop stop-color="#B73BBE"/>
<stop offset="1" stop-color="#992E9D"/>
</linearGradient>
</defs>
</svg>
