<svg width="62" height="54" viewBox="0 0 62 54" fill="none" xmlns="http://www.w3.org/2000/svg">
<path d="M56.4781 7.66431H55.771C55.2703 7.66431 54.8646 8.07003 54.8646 8.57074C54.8646 9.07145 55.2703 9.47717 55.771 9.47717H56.4781C58.5233 9.47717 60.1871 11.141 60.1871 13.1861V47.8583C60.1871 49.9035 58.5232 51.5673 56.4781 51.5673H5.52187C3.47683 51.5674 1.81287 49.9035 1.81287 47.8583V20.0608C1.81287 19.5601 1.40715 19.1544 0.906433 19.1544C0.405719 19.1544 0 19.5601 0 20.0608V47.8583C0 50.9031 2.4771 53.3802 5.52187 53.3802H56.478C59.5228 53.3802 61.9999 50.9031 61.9999 47.8583V13.1862C62 10.1414 59.5229 7.66431 56.4781 7.66431Z" fill="url(#paint0_linear_1_179)"/>
<path d="M0.906433 17.1045C1.40715 17.1045 1.81287 16.6988 1.81287 16.1981V6.14138C1.81287 4.09622 3.47683 2.43249 5.52187 2.43249H23.2872C23.9214 2.43249 24.5487 2.59638 25.1019 2.90674L35.5563 8.77136C36.3797 9.23328 37.314 9.47741 38.258 9.47741H42.4508C42.9515 9.47741 43.3572 9.07169 43.3572 8.57098C43.3572 8.07026 42.9515 7.66454 42.4508 7.66454H38.258C37.624 7.66454 36.9965 7.50066 36.4432 7.1903L25.9889 1.32568C25.1656 0.863883 24.2315 0.619629 23.2872 0.619629H5.52187C2.4771 0.619508 0 3.09661 0 6.14138V16.1981C0 16.6987 0.405719 17.1045 0.906433 17.1045Z" fill="url(#paint1_linear_1_179)"/>
<path d="M25.213 15.5423C27.0464 14.7698 28.9934 14.3782 31 14.3782C33.0767 14.3782 35.0874 14.7976 36.9765 15.6246C37.0949 15.6764 37.2182 15.701 37.3396 15.701C37.6887 15.701 38.0215 15.498 38.1704 15.1578C38.3711 14.6993 38.1623 14.1647 37.7036 13.964C35.5839 13.0359 33.3286 12.5654 31 12.5654C28.7505 12.5654 26.5665 13.005 24.5091 13.8717C24.0478 14.066 23.8314 14.5977 24.0257 15.059C24.22 15.52 24.7514 15.7365 25.213 15.5423Z" fill="url(#paint2_linear_1_179)"/>
<path d="M21.8053 43.2771C24.5375 45.0775 27.717 46.0291 31 46.0291C40.226 46.0291 47.7319 38.5233 47.7319 29.2971C47.7319 27.1798 47.3415 25.116 46.5714 23.163C46.3878 22.6973 45.8617 22.4689 45.3956 22.6521C44.9298 22.8358 44.7013 23.3621 44.8847 23.8279C45.571 25.5683 45.9189 27.4085 45.9189 29.2971C45.9189 37.5235 39.2263 44.2163 30.9999 44.2163C28.0725 44.2163 25.2379 43.368 22.8027 41.7632C22.3847 41.4878 21.8225 41.6033 21.547 42.0214C21.2714 42.4394 21.3872 43.0016 21.8053 43.2771Z" fill="url(#paint3_linear_1_179)"/>
<path d="M18.6851 40.6231C18.8638 40.8173 19.1077 40.9158 19.3523 40.9158C19.5717 40.9158 19.7918 40.8366 19.9658 40.6765C20.3343 40.3375 20.3581 39.764 20.0191 39.3956C17.4794 36.6356 16.0808 33.0493 16.0808 29.2971C16.0808 27.0834 16.555 24.9518 17.4898 22.962C17.7027 22.5089 17.5079 21.969 17.0548 21.7561C16.6019 21.5434 16.0619 21.7381 15.8489 22.191C14.7997 24.4239 14.2679 26.8147 14.2679 29.2971C14.2681 33.5053 15.8367 37.5275 18.6851 40.6231Z" fill="url(#paint4_linear_1_179)"/>
<path d="M31 42.4036C38.2268 42.4036 44.1062 36.5243 44.1062 29.2975C44.1062 28.2224 43.9742 27.1509 43.714 26.1124C43.5923 25.6266 43.1004 25.3321 42.6143 25.4535C42.1287 25.5753 41.8337 26.0675 41.9554 26.5531C42.1796 27.4476 42.2933 28.371 42.2933 29.2975C42.2933 35.5245 37.2271 40.5908 31 40.5908C24.7729 40.5908 19.7067 35.5245 19.7067 29.2975C19.7067 23.0703 24.7729 18.004 31 18.004C32.0926 18.004 33.1748 18.1614 34.2169 18.4716C34.697 18.6138 35.2014 18.3413 35.3444 17.8615C35.4872 17.3816 35.2141 16.877 34.7343 16.7341C33.5241 16.3739 32.2678 16.1912 31 16.1912C23.7732 16.1912 17.8938 22.0705 17.8938 29.2975C17.8938 36.5241 23.7732 42.4036 31 42.4036Z" fill="url(#paint5_linear_1_179)"/>
<path d="M42.3352 13.7046L30.1141 25.6873L28.4754 23.9345C27.9465 23.3691 27.0563 23.3391 26.4909 23.8679L23.6865 26.4895C23.4126 26.7457 23.255 27.0932 23.2423 27.468C23.2297 27.8429 23.3638 28.2003 23.6199 28.474L27.5827 32.7129C27.7701 32.9132 27.9893 33.0937 28.2347 33.249C28.3797 33.341 28.5479 33.3897 28.7197 33.3897H31.3047C31.4767 33.3897 31.645 33.3407 31.7904 33.2486C31.9909 33.1212 32.1752 32.9758 32.3377 32.8165L37.3987 27.8543C37.7561 27.5038 37.7617 26.9299 37.4113 26.5724C37.0607 26.2148 36.4868 26.2096 36.1294 26.5599L31.0684 31.5223C31.0494 31.5408 31.0297 31.5591 31.0092 31.5769H29.0137C28.9756 31.5442 28.94 31.5101 28.9072 31.475L25.2235 27.5346L27.4306 25.4713L29.0757 27.231C29.3362 27.5098 29.6898 27.6678 30.0711 27.6761C30.456 27.686 30.8124 27.5418 31.0845 27.275L43.3127 15.2854L45.428 17.4428L38.8985 23.845C38.5412 24.1955 38.5355 24.7694 38.886 25.1269C39.2366 25.4845 39.8104 25.4897 40.1678 25.1394L46.989 18.4512C47.2569 18.1885 47.4064 17.8374 47.4101 17.4622C47.4137 17.0872 47.2713 16.7333 47.0087 16.4653L44.3212 13.7243C44.0586 13.4564 43.7075 13.3069 43.3322 13.3032C42.9516 13.3021 42.6032 13.4421 42.3352 13.7046Z" fill="url(#paint6_linear_1_179)"/>
<path d="M17.3785 19.3997C17.6241 19.8557 18.0792 20.1393 18.596 20.1579C18.6141 20.1587 18.6324 20.159 18.6505 20.159C19.1497 20.159 19.6042 19.9096 19.8747 19.4842C20.3516 18.7342 20.984 18.1187 21.8079 17.6022C22.2452 17.3279 22.5001 16.8566 22.4897 16.3411C22.4793 15.8311 22.2091 15.3757 21.767 15.1229C20.9044 14.6294 20.2742 14.0268 19.8407 13.2808C19.5818 12.8352 19.1185 12.5678 18.6013 12.5652C18.5988 12.5652 18.5964 12.5652 18.5937 12.5652C18.0797 12.5652 17.6172 12.8276 17.3553 13.2681C16.9161 14.0067 16.3223 14.5951 15.54 15.0675C15.0939 15.3369 14.8244 15.8276 14.8369 16.3482C14.8492 16.8692 15.1295 17.3277 15.5867 17.5751C16.3549 17.9909 16.9412 18.5875 17.3785 19.3997ZM18.9134 14.1946C18.9134 14.1947 18.9133 14.195 18.913 14.1952C18.9131 14.1951 18.9133 14.1948 18.9134 14.1946ZM18.5923 14.6856C19.0577 15.3369 19.6521 15.9067 20.3678 16.3872C19.7075 16.8636 19.1408 17.4154 18.6746 18.0354C18.2154 17.3341 17.6447 16.7518 16.9696 16.2958C17.6069 15.8409 18.15 15.3019 18.5923 14.6856Z" fill="url(#paint7_linear_1_179)"/>
<path d="M48.3691 44.3888C49.3397 44.9138 50.0794 45.6666 50.6307 46.6903C50.8961 47.1834 51.3882 47.4898 51.9468 47.5101C51.9665 47.5108 51.9861 47.5112 52.0057 47.5112C52.5455 47.5112 53.0373 47.2413 53.33 46.7809C53.9268 45.8425 54.717 45.0729 55.7454 44.428C56.2185 44.1315 56.4943 43.6215 56.4831 43.064C56.472 42.5129 56.1801 42.0208 55.7023 41.7476C54.6213 41.1292 53.8301 40.3717 53.2841 39.4324C53.0046 38.9513 52.5037 38.6623 51.9448 38.6594C51.9421 38.6594 51.9393 38.6594 51.9367 38.6594C51.381 38.6594 50.8811 38.943 50.5982 39.4188C50.0542 40.3337 49.2878 41.0937 48.3205 41.6777C47.8377 41.9692 47.546 42.5002 47.5593 43.0635C47.5726 43.6263 47.8754 44.1216 48.3691 44.3888ZM51.9355 40.6965C52.5584 41.6418 53.4015 42.4512 54.4494 43.1096C53.4754 43.7722 52.6618 44.5654 52.0234 45.4745C51.4026 44.4471 50.5912 43.6205 49.6042 43.0099C50.5486 42.381 51.3304 41.6051 51.9355 40.6965Z" fill="url(#paint8_linear_1_179)"/>
<path d="M45.4394 7.85931C46.41 8.38444 47.1497 9.13726 47.701 10.161C47.9665 10.654 48.4585 10.9604 49.0171 10.9806C49.0368 10.9813 49.0564 10.9817 49.076 10.9817C49.6157 10.9817 50.1076 10.7117 50.4003 10.2514C50.9971 9.31299 51.7873 8.54336 52.8157 7.89847C53.2888 7.602 53.5646 7.09198 53.5534 6.53447C53.5423 5.98336 53.2504 5.49134 52.7726 5.21809C51.6916 4.59966 50.9004 3.84224 50.3544 2.90293C50.0749 2.4218 49.574 2.13283 49.0151 2.12993C48.4602 2.1257 47.9527 2.41116 47.6683 2.88928C47.1244 3.80417 46.358 4.56424 45.3907 5.14823C44.9078 5.43974 44.6162 5.97079 44.6295 6.53411C44.643 7.09706 44.9458 7.59233 45.4394 7.85931ZM49.0056 4.16699C49.6285 5.11233 50.4716 5.92172 51.5196 6.58015C50.5456 7.24269 49.7319 8.036 49.0936 8.94497C48.4728 7.91768 47.6613 7.09126 46.6744 6.48057C47.6189 5.8515 48.4007 5.07559 49.0056 4.16699Z" fill="url(#paint9_linear_1_179)"/>
<defs>
<linearGradient id="paint0_linear_1_179" x1="30.9999" y1="7.66431" x2="30.9999" y2="50.4116" gradientUnits="userSpaceOnUse">
<stop stop-color="#B73BBE"/>
<stop offset="1" stop-color="#992E9D"/>
</linearGradient>
<linearGradient id="paint1_linear_1_179" x1="21.6786" y1="0.619629" x2="21.6786" y2="16.0341" gradientUnits="userSpaceOnUse">
<stop stop-color="#B73BBE"/>
<stop offset="1" stop-color="#992E9D"/>
</linearGradient>
<linearGradient id="paint2_linear_1_179" x1="31.1005" y1="12.5654" x2="31.1005" y2="15.4974" gradientUnits="userSpaceOnUse">
<stop stop-color="#B73BBE"/>
<stop offset="1" stop-color="#992E9D"/>
</linearGradient>
<linearGradient id="paint3_linear_1_179" x1="34.5646" y1="22.5889" x2="34.5646" y2="44.507" gradientUnits="userSpaceOnUse">
<stop stop-color="#B73BBE"/>
<stop offset="1" stop-color="#992E9D"/>
</linearGradient>
<linearGradient id="paint4_linear_1_179" x1="17.2632" y1="21.6699" x2="17.2632" y2="39.666" gradientUnits="userSpaceOnUse">
<stop stop-color="#B73BBE"/>
<stop offset="1" stop-color="#992E9D"/>
</linearGradient>
<linearGradient id="paint5_linear_1_179" x1="31" y1="16.1912" x2="31" y2="40.7015" gradientUnits="userSpaceOnUse">
<stop stop-color="#B73BBE"/>
<stop offset="1" stop-color="#992E9D"/>
</linearGradient>
<linearGradient id="paint6_linear_1_179" x1="35.3258" y1="13.3032" x2="35.3258" y2="32.0853" gradientUnits="userSpaceOnUse">
<stop stop-color="#B73BBE"/>
<stop offset="1" stop-color="#992E9D"/>
</linearGradient>
<linearGradient id="paint7_linear_1_179" x1="18.6632" y1="12.5652" x2="18.6632" y2="19.6659" gradientUnits="userSpaceOnUse">
<stop stop-color="#B73BBE"/>
<stop offset="1" stop-color="#992E9D"/>
</linearGradient>
<linearGradient id="paint8_linear_1_179" x1="52.0212" y1="38.6594" x2="52.0212" y2="46.9364" gradientUnits="userSpaceOnUse">
<stop stop-color="#B73BBE"/>
<stop offset="1" stop-color="#992E9D"/>
</linearGradient>
<linearGradient id="paint9_linear_1_179" x1="49.0914" y1="2.12988" x2="49.0914" y2="10.4069" gradientUnits="userSpaceOnUse">
<stop stop-color="#B73BBE"/>
<stop offset="1" stop-color="#992E9D"/>
</linearGradient>
</defs>
</svg>
