<svg width="310" height="80" viewBox="0 0 310 80" fill="none" xmlns="http://www.w3.org/2000/svg">
<rect x="0.5" y="0.5" width="309" height="79" rx="13.5" stroke="#E5E5E8"/>
<path d="M16.864 32.728V27.64H25.728V51H20.032V32.728H16.864ZM28.5113 39C28.5113 35.3307 29.2153 32.44 30.6233 30.328C32.0526 28.216 34.3459 27.16 37.5033 27.16C40.6606 27.16 42.9433 28.216 44.3513 30.328C45.7806 32.44 46.4953 35.3307 46.4953 39C46.4953 42.712 45.7806 45.624 44.3513 47.736C42.9433 49.848 40.6606 50.904 37.5033 50.904C34.3459 50.904 32.0526 49.848 30.6233 47.736C29.2153 45.624 28.5113 42.712 28.5113 39ZM41.1193 39C41.1193 36.8453 40.8846 35.192 40.4153 34.04C39.9459 32.8667 38.9753 32.28 37.5033 32.28C36.0312 32.28 35.0606 32.8667 34.5913 34.04C34.1219 35.192 33.8873 36.8453 33.8873 39C33.8873 40.4507 33.9726 41.656 34.1433 42.616C34.3139 43.5547 34.6553 44.3227 35.1673 44.92C35.7006 45.496 36.4793 45.784 37.5033 45.784C38.5273 45.784 39.2953 45.496 39.8073 44.92C40.3406 44.3227 40.6926 43.5547 40.8633 42.616C41.0339 41.656 41.1193 40.4507 41.1193 39ZM48.4262 39C48.4262 35.3307 49.1303 32.44 50.5383 30.328C51.9676 28.216 54.2609 27.16 57.4183 27.16C60.5756 27.16 62.8583 28.216 64.2663 30.328C65.6956 32.44 66.4103 35.3307 66.4103 39C66.4103 42.712 65.6956 45.624 64.2663 47.736C62.8583 49.848 60.5756 50.904 57.4183 50.904C54.2609 50.904 51.9676 49.848 50.5383 47.736C49.1303 45.624 48.4262 42.712 48.4262 39ZM61.0343 39C61.0343 36.8453 60.7996 35.192 60.3303 34.04C59.8609 32.8667 58.8903 32.28 57.4183 32.28C55.9462 32.28 54.9756 32.8667 54.5063 34.04C54.0369 35.192 53.8023 36.8453 53.8023 39C53.8023 40.4507 53.8876 41.656 54.0583 42.616C54.2289 43.5547 54.5703 44.3227 55.0823 44.92C55.6156 45.496 56.3943 45.784 57.4183 45.784C58.4423 45.784 59.2103 45.496 59.7223 44.92C60.2556 44.3227 60.6076 43.5547 60.7783 42.616C60.9489 41.656 61.0343 40.4507 61.0343 39ZM67.8932 33.528C67.8932 31.8 68.3839 30.4667 69.3652 29.528C70.3679 28.5893 71.6586 28.12 73.2372 28.12C74.8159 28.12 76.0959 28.5893 77.0772 29.528C78.0586 30.4667 78.5492 31.8 78.5492 33.528C78.5492 35.256 78.0586 36.5893 77.0772 37.528C76.0959 38.4667 74.8159 38.936 73.2372 38.936C71.6586 38.936 70.3679 38.4667 69.3652 37.528C68.3839 36.5893 67.8932 35.256 67.8932 33.528ZM89.6213 28.472L77.3012 51H72.0212L84.3412 28.472H89.6213ZM73.2052 31.32C72.1812 31.32 71.6692 32.056 71.6692 33.528C71.6692 34.9787 72.1812 35.704 73.2052 35.704C73.6959 35.704 74.0799 35.5227 74.3572 35.16C74.6346 34.7973 74.7732 34.2533 74.7732 33.528C74.7732 32.056 74.2506 31.32 73.2052 31.32ZM83.1252 45.944C83.1252 44.216 83.6159 42.8827 84.5972 41.944C85.5786 41.0053 86.8586 40.536 88.4373 40.536C90.0159 40.536 91.2959 41.0053 92.2773 41.944C93.2586 42.8827 93.7493 44.216 93.7493 45.944C93.7493 47.672 93.2586 49.0053 92.2773 49.944C91.2959 50.8827 90.0159 51.352 88.4373 51.352C86.8586 51.352 85.5786 50.8827 84.5972 49.944C83.6159 49.0053 83.1252 47.672 83.1252 45.944ZM88.4053 43.736C87.9146 43.736 87.5306 43.9173 87.2533 44.28C86.9972 44.6427 86.8692 45.1973 86.8692 45.944C86.8692 47.3947 87.3812 48.12 88.4053 48.12C88.8959 48.12 89.2799 47.9387 89.5572 47.576C89.8346 47.2133 89.9732 46.6693 89.9732 45.944C89.9732 45.2187 89.8346 44.6747 89.5572 44.312C89.2799 43.928 88.8959 43.736 88.4053 43.736Z" fill="url(#paint0_linear_1_1250)"/>
<path d="M105.352 35.778V39.04H108.908V40.09H105.352V43.45H109.328V44.5H104.078V34.728H109.328V35.778H105.352ZM114.574 36.688C115.507 36.688 116.263 36.9727 116.842 37.542C117.42 38.102 117.71 38.914 117.71 39.978V44.5H116.45V40.16C116.45 39.3947 116.258 38.8113 115.876 38.41C115.493 37.9993 114.97 37.794 114.308 37.794C113.636 37.794 113.099 38.004 112.698 38.424C112.306 38.844 112.11 39.4553 112.11 40.258V44.5H110.836V36.828H112.11V37.92C112.362 37.528 112.702 37.2247 113.132 37.01C113.57 36.7953 114.051 36.688 114.574 36.688ZM120.645 38.074C120.869 37.6353 121.186 37.2947 121.597 37.052C122.017 36.8093 122.525 36.688 123.123 36.688V38.004H122.787C121.359 38.004 120.645 38.7787 120.645 40.328V44.5H119.371V36.828H120.645V38.074ZM127.519 44.626C126.801 44.626 126.147 44.4627 125.559 44.136C124.981 43.8093 124.523 43.3473 124.187 42.75C123.861 42.1433 123.697 41.4433 123.697 40.65C123.697 39.866 123.865 39.1753 124.201 38.578C124.547 37.9713 125.013 37.5093 125.601 37.192C126.189 36.8653 126.847 36.702 127.575 36.702C128.303 36.702 128.961 36.8653 129.549 37.192C130.137 37.5093 130.599 37.9667 130.935 38.564C131.281 39.1613 131.453 39.8567 131.453 40.65C131.453 41.4433 131.276 42.1433 130.921 42.75C130.576 43.3473 130.105 43.8093 129.507 44.136C128.91 44.4627 128.247 44.626 127.519 44.626ZM127.519 43.506C127.977 43.506 128.406 43.3987 128.807 43.184C129.209 42.9693 129.531 42.6473 129.773 42.218C130.025 41.7887 130.151 41.266 130.151 40.65C130.151 40.034 130.03 39.5113 129.787 39.082C129.545 38.6527 129.227 38.3353 128.835 38.13C128.443 37.9153 128.019 37.808 127.561 37.808C127.095 37.808 126.665 37.9153 126.273 38.13C125.891 38.3353 125.583 38.6527 125.349 39.082C125.116 39.5113 124.999 40.034 124.999 40.65C124.999 41.2753 125.111 41.8027 125.335 42.232C125.569 42.6613 125.877 42.9833 126.259 43.198C126.642 43.4033 127.062 43.506 127.519 43.506ZM133.983 34.14V44.5H132.709V34.14H133.983ZM137.008 34.14V44.5H135.734V34.14H137.008ZM147.985 36.688C148.583 36.688 149.115 36.814 149.581 37.066C150.048 37.3087 150.417 37.6773 150.687 38.172C150.958 38.6667 151.093 39.2687 151.093 39.978V44.5H149.833V40.16C149.833 39.3947 149.642 38.8113 149.259 38.41C148.886 37.9993 148.377 37.794 147.733 37.794C147.071 37.794 146.543 38.0087 146.151 38.438C145.759 38.858 145.563 39.4693 145.563 40.272V44.5H144.303V40.16C144.303 39.3947 144.112 38.8113 143.729 38.41C143.356 37.9993 142.847 37.794 142.203 37.794C141.541 37.794 141.013 38.0087 140.621 38.438C140.229 38.858 140.033 39.4693 140.033 40.272V44.5H138.759V36.828H140.033V37.934C140.285 37.5327 140.621 37.2247 141.041 37.01C141.471 36.7953 141.942 36.688 142.455 36.688C143.099 36.688 143.669 36.8327 144.163 37.122C144.658 37.4113 145.027 37.836 145.269 38.396C145.484 37.8547 145.839 37.4347 146.333 37.136C146.828 36.8373 147.379 36.688 147.985 36.688ZM159.763 40.37C159.763 40.6127 159.749 40.8693 159.721 41.14H153.589C153.636 41.896 153.892 42.4887 154.359 42.918C154.835 43.338 155.409 43.548 156.081 43.548C156.632 43.548 157.089 43.422 157.453 43.17C157.826 42.9087 158.088 42.5633 158.237 42.134H159.609C159.404 42.8713 158.993 43.4733 158.377 43.94C157.761 44.3973 156.996 44.626 156.081 44.626C155.353 44.626 154.7 44.4627 154.121 44.136C153.552 43.8093 153.104 43.3473 152.777 42.75C152.45 42.1433 152.287 41.4433 152.287 40.65C152.287 39.8567 152.446 39.1613 152.763 38.564C153.08 37.9667 153.524 37.5093 154.093 37.192C154.672 36.8653 155.334 36.702 156.081 36.702C156.809 36.702 157.453 36.8607 158.013 37.178C158.573 37.4953 159.002 37.934 159.301 38.494C159.609 39.0447 159.763 39.67 159.763 40.37ZM158.447 40.104C158.447 39.6187 158.34 39.2033 158.125 38.858C157.91 38.5033 157.616 38.2373 157.243 38.06C156.879 37.8733 156.473 37.78 156.025 37.78C155.381 37.78 154.83 37.9853 154.373 38.396C153.925 38.8067 153.668 39.376 153.603 40.104H158.447ZM164.763 36.688C165.696 36.688 166.452 36.9727 167.031 37.542C167.609 38.102 167.899 38.914 167.899 39.978V44.5H166.639V40.16C166.639 39.3947 166.447 38.8113 166.065 38.41C165.682 37.9993 165.159 37.794 164.497 37.794C163.825 37.794 163.288 38.004 162.887 38.424C162.495 38.844 162.299 39.4553 162.299 40.258V44.5H161.025V36.828H162.299V37.92C162.551 37.528 162.891 37.2247 163.321 37.01C163.759 36.7953 164.24 36.688 164.763 36.688ZM171.114 37.878V42.4C171.114 42.7733 171.193 43.0393 171.352 43.198C171.51 43.3473 171.786 43.422 172.178 43.422H173.116V44.5H171.968C171.258 44.5 170.726 44.3367 170.372 44.01C170.017 43.6833 169.84 43.1467 169.84 42.4V37.878H168.846V36.828H169.84V34.896H171.114V36.828H173.116V37.878H171.114ZM183.068 34.742V35.778H178.826V39.068H182.27V40.104H178.826V44.5H177.552V34.742H183.068ZM191.186 40.37C191.186 40.6127 191.172 40.8693 191.144 41.14H185.012C185.059 41.896 185.316 42.4887 185.782 42.918C186.258 43.338 186.832 43.548 187.504 43.548C188.055 43.548 188.512 43.422 188.876 43.17C189.25 42.9087 189.511 42.5633 189.66 42.134H191.032C190.827 42.8713 190.416 43.4733 189.8 43.94C189.184 44.3973 188.419 44.626 187.504 44.626C186.776 44.626 186.123 44.4627 185.544 44.136C184.975 43.8093 184.527 43.3473 184.2 42.75C183.874 42.1433 183.71 41.4433 183.71 40.65C183.71 39.8567 183.869 39.1613 184.186 38.564C184.504 37.9667 184.947 37.5093 185.516 37.192C186.095 36.8653 186.758 36.702 187.504 36.702C188.232 36.702 188.876 36.8607 189.436 37.178C189.996 37.4953 190.426 37.934 190.724 38.494C191.032 39.0447 191.186 39.67 191.186 40.37ZM189.87 40.104C189.87 39.6187 189.763 39.2033 189.548 38.858C189.334 38.5033 189.04 38.2373 188.666 38.06C188.302 37.8733 187.896 37.78 187.448 37.78C186.804 37.78 186.254 37.9853 185.796 38.396C185.348 38.8067 185.092 39.376 185.026 40.104H189.87ZM199.448 40.37C199.448 40.6127 199.434 40.8693 199.406 41.14H193.274C193.321 41.896 193.577 42.4887 194.044 42.918C194.52 43.338 195.094 43.548 195.766 43.548C196.317 43.548 196.774 43.422 197.138 43.17C197.511 42.9087 197.773 42.5633 197.922 42.134H199.294C199.089 42.8713 198.678 43.4733 198.062 43.94C197.446 44.3973 196.681 44.626 195.766 44.626C195.038 44.626 194.385 44.4627 193.806 44.136C193.237 43.8093 192.789 43.3473 192.462 42.75C192.135 42.1433 191.972 41.4433 191.972 40.65C191.972 39.8567 192.131 39.1613 192.448 38.564C192.765 37.9667 193.209 37.5093 193.778 37.192C194.357 36.8653 195.019 36.702 195.766 36.702C196.494 36.702 197.138 36.8607 197.698 37.178C198.258 37.4953 198.687 37.934 198.986 38.494C199.294 39.0447 199.448 39.67 199.448 40.37ZM198.132 40.104C198.132 39.6187 198.025 39.2033 197.81 38.858C197.595 38.5033 197.301 38.2373 196.928 38.06C196.564 37.8733 196.158 37.78 195.71 37.78C195.066 37.78 194.515 37.9853 194.058 38.396C193.61 38.8067 193.353 39.376 193.288 40.104H198.132ZM204.68 35.582C204.437 35.582 204.232 35.498 204.064 35.33C203.896 35.162 203.812 34.9567 203.812 34.714C203.812 34.4713 203.896 34.266 204.064 34.098C204.232 33.93 204.437 33.846 204.68 33.846C204.913 33.846 205.109 33.93 205.268 34.098C205.436 34.266 205.52 34.4713 205.52 34.714C205.52 34.9567 205.436 35.162 205.268 35.33C205.109 35.498 204.913 35.582 204.68 35.582ZM205.296 36.828V44.5H204.022V36.828H205.296ZM209.763 44.626C209.175 44.626 208.648 44.528 208.181 44.332C207.715 44.1267 207.346 43.8467 207.075 43.492C206.805 43.128 206.655 42.7127 206.627 42.246H207.943C207.981 42.6287 208.158 42.9413 208.475 43.184C208.802 43.4267 209.227 43.548 209.749 43.548C210.235 43.548 210.617 43.4407 210.897 43.226C211.177 43.0113 211.317 42.7407 211.317 42.414C211.317 42.078 211.168 41.8307 210.869 41.672C210.571 41.504 210.109 41.3407 209.483 41.182C208.914 41.0327 208.447 40.8833 208.083 40.734C207.729 40.5753 207.421 40.3467 207.159 40.048C206.907 39.74 206.781 39.3387 206.781 38.844C206.781 38.452 206.898 38.0927 207.131 37.766C207.365 37.4393 207.696 37.1827 208.125 36.996C208.555 36.8 209.045 36.702 209.595 36.702C210.445 36.702 211.131 36.9167 211.653 37.346C212.176 37.7753 212.456 38.3633 212.493 39.11H211.219C211.191 38.7087 211.028 38.3867 210.729 38.144C210.44 37.9013 210.048 37.78 209.553 37.78C209.096 37.78 208.732 37.878 208.461 38.074C208.191 38.27 208.055 38.5267 208.055 38.844C208.055 39.096 208.135 39.306 208.293 39.474C208.461 39.6327 208.667 39.7633 208.909 39.866C209.161 39.9593 209.507 40.0667 209.945 40.188C210.496 40.3373 210.944 40.4867 211.289 40.636C211.635 40.776 211.929 40.9907 212.171 41.28C212.423 41.5693 212.554 41.9473 212.563 42.414C212.563 42.834 212.447 43.212 212.213 43.548C211.98 43.884 211.649 44.15 211.219 44.346C210.799 44.5327 210.314 44.626 209.763 44.626ZM218.528 38.074C218.752 37.6353 219.07 37.2947 219.48 37.052C219.9 36.8093 220.409 36.688 221.006 36.688V38.004H220.67C219.242 38.004 218.528 38.7787 218.528 40.328V44.5H217.254V36.828H218.528V38.074ZM229.057 40.37C229.057 40.6127 229.043 40.8693 229.015 41.14H222.883C222.93 41.896 223.186 42.4887 223.653 42.918C224.129 43.338 224.703 43.548 225.375 43.548C225.926 43.548 226.383 43.422 226.747 43.17C227.12 42.9087 227.382 42.5633 227.531 42.134H228.903C228.698 42.8713 228.287 43.4733 227.671 43.94C227.055 44.3973 226.29 44.626 225.375 44.626C224.647 44.626 223.994 44.4627 223.415 44.136C222.846 43.8093 222.398 43.3473 222.071 42.75C221.744 42.1433 221.581 41.4433 221.581 40.65C221.581 39.8567 221.74 39.1613 222.057 38.564C222.374 37.9667 222.818 37.5093 223.387 37.192C223.966 36.8653 224.628 36.702 225.375 36.702C226.103 36.702 226.747 36.8607 227.307 37.178C227.867 37.4953 228.296 37.934 228.595 38.494C228.903 39.0447 229.057 39.67 229.057 40.37ZM227.741 40.104C227.741 39.6187 227.634 39.2033 227.419 38.858C227.204 38.5033 226.91 38.2373 226.537 38.06C226.173 37.8733 225.767 37.78 225.319 37.78C224.675 37.78 224.124 37.9853 223.667 38.396C223.219 38.8067 222.962 39.376 222.897 40.104H227.741ZM233.441 37.878H231.831V44.5H230.557V37.878H229.563V36.828H230.557V36.282C230.557 35.4233 230.776 34.798 231.215 34.406C231.663 34.0047 232.377 33.804 233.357 33.804V34.868C232.797 34.868 232.4 34.98 232.167 35.204C231.943 35.4187 231.831 35.778 231.831 36.282V36.828H233.441V37.878ZM241.31 36.828V44.5H240.036V43.366C239.793 43.758 239.453 44.066 239.014 44.29C238.585 44.5047 238.109 44.612 237.586 44.612C236.989 44.612 236.452 44.4907 235.976 44.248C235.5 43.996 235.122 43.6227 234.842 43.128C234.571 42.6333 234.436 42.0313 234.436 41.322V36.828H235.696V41.154C235.696 41.91 235.887 42.4933 236.27 42.904C236.653 43.3053 237.175 43.506 237.838 43.506C238.519 43.506 239.056 43.296 239.448 42.876C239.84 42.456 240.036 41.8447 240.036 41.042V36.828H241.31ZM246.779 36.688C247.712 36.688 248.468 36.9727 249.047 37.542C249.626 38.102 249.915 38.914 249.915 39.978V44.5H248.655V40.16C248.655 39.3947 248.464 38.8113 248.081 38.41C247.698 37.9993 247.176 37.794 246.513 37.794C245.841 37.794 245.304 38.004 244.903 38.424C244.511 38.844 244.315 39.4553 244.315 40.258V44.5H243.041V36.828H244.315V37.92C244.567 37.528 244.908 37.2247 245.337 37.01C245.776 36.7953 246.256 36.688 246.779 36.688ZM251.1 40.636C251.1 39.852 251.259 39.166 251.576 38.578C251.894 37.9807 252.328 37.5187 252.878 37.192C253.438 36.8653 254.064 36.702 254.754 36.702C255.352 36.702 255.907 36.842 256.42 37.122C256.934 37.3927 257.326 37.752 257.596 38.2V34.14H258.884V44.5H257.596V43.058C257.344 43.5153 256.971 43.8933 256.476 44.192C255.982 44.4813 255.403 44.626 254.74 44.626C254.059 44.626 253.438 44.458 252.878 44.122C252.328 43.786 251.894 43.3147 251.576 42.708C251.259 42.1013 251.1 41.4107 251.1 40.636ZM257.596 40.65C257.596 40.0713 257.48 39.5673 257.246 39.138C257.013 38.7087 256.696 38.382 256.294 38.158C255.902 37.9247 255.468 37.808 254.992 37.808C254.516 37.808 254.082 37.92 253.69 38.144C253.298 38.368 252.986 38.6947 252.752 39.124C252.519 39.5533 252.402 40.0573 252.402 40.636C252.402 41.224 252.519 41.7373 252.752 42.176C252.986 42.6053 253.298 42.9367 253.69 43.17C254.082 43.394 254.516 43.506 254.992 43.506C255.468 43.506 255.902 43.394 256.294 43.17C256.696 42.9367 257.013 42.6053 257.246 42.176C257.48 41.7373 257.596 41.2287 257.596 40.65ZM267.617 40.37C267.617 40.6127 267.603 40.8693 267.575 41.14H261.443C261.49 41.896 261.746 42.4887 262.213 42.918C262.689 43.338 263.263 43.548 263.935 43.548C264.486 43.548 264.943 43.422 265.307 43.17C265.68 42.9087 265.942 42.5633 266.091 42.134H267.463C267.258 42.8713 266.847 43.4733 266.231 43.94C265.615 44.3973 264.85 44.626 263.935 44.626C263.207 44.626 262.554 44.4627 261.975 44.136C261.406 43.8093 260.958 43.3473 260.631 42.75C260.304 42.1433 260.141 41.4433 260.141 40.65C260.141 39.8567 260.3 39.1613 260.617 38.564C260.934 37.9667 261.378 37.5093 261.947 37.192C262.526 36.8653 263.188 36.702 263.935 36.702C264.663 36.702 265.307 36.8607 265.867 37.178C266.427 37.4953 266.856 37.934 267.155 38.494C267.463 39.0447 267.617 39.67 267.617 40.37ZM266.301 40.104C266.301 39.6187 266.194 39.2033 265.979 38.858C265.764 38.5033 265.47 38.2373 265.097 38.06C264.733 37.8733 264.327 37.78 263.879 37.78C263.235 37.78 262.684 37.9853 262.227 38.396C261.779 38.8067 261.522 39.376 261.457 40.104H266.301ZM268.403 40.636C268.403 39.852 268.561 39.166 268.879 38.578C269.196 37.9807 269.63 37.5187 270.181 37.192C270.741 36.8653 271.366 36.702 272.057 36.702C272.654 36.702 273.209 36.842 273.723 37.122C274.236 37.3927 274.628 37.752 274.899 38.2V34.14H276.187V44.5H274.899V43.058C274.647 43.5153 274.273 43.8933 273.779 44.192C273.284 44.4813 272.705 44.626 272.043 44.626C271.361 44.626 270.741 44.458 270.181 44.122C269.63 43.786 269.196 43.3147 268.879 42.708C268.561 42.1013 268.403 41.4107 268.403 40.636ZM274.899 40.65C274.899 40.0713 274.782 39.5673 274.549 39.138C274.315 38.7087 273.998 38.382 273.597 38.158C273.205 37.9247 272.771 37.808 272.295 37.808C271.819 37.808 271.385 37.92 270.993 38.144C270.601 38.368 270.288 38.6947 270.055 39.124C269.821 39.5533 269.705 40.0573 269.705 40.636C269.705 41.224 269.821 41.7373 270.055 42.176C270.288 42.6053 270.601 42.9367 270.993 43.17C271.385 43.394 271.819 43.506 272.295 43.506C272.771 43.506 273.205 43.394 273.597 43.17C273.998 42.9367 274.315 42.6053 274.549 42.176C274.782 41.7373 274.899 41.2287 274.899 40.65Z" fill="#4C4D52"/>
<defs>
<linearGradient id="paint0_linear_1_1250" x1="55.5" y1="16" x2="55.5" y2="60.8831" gradientUnits="userSpaceOnUse">
<stop stop-color="#FFA50B"/>
<stop offset="1" stop-color="#E27900"/>
</linearGradient>
</defs>
</svg>
