<svg width="23" height="24" viewBox="0 0 23 24" fill="none" xmlns="http://www.w3.org/2000/svg">
<path d="M8.57599 16.2504L11.501 14.4754L14.426 16.2504L13.651 12.9254L16.251 10.6754L12.826 10.4004L11.501 7.25044L10.176 10.4004L6.75099 10.6754L9.35099 12.9254L8.57599 16.2504ZM11.501 23.3004L8.15099 20.0004H3.50099V15.3504L0.200989 12.0004L3.50099 8.65044V4.00044H8.15099L11.501 0.700439L14.851 4.00044H19.501V8.65044L22.801 12.0004L19.501 15.3504V20.0004H14.851L11.501 23.3004ZM11.501 20.5004L14.001 18.0004H17.501V14.5004L20.001 12.0004L17.501 9.50044V6.00044H14.001L11.501 3.50044L9.00099 6.00044H5.50099V9.50044L3.00099 12.0004L5.50099 14.5004V18.0004H9.00099L11.501 20.5004Z" fill="#992E9D"/>
</svg>
